<?xml version="1.0" encoding="UTF-8" standalone="no"?>
<!-- Created with Inkscape (http://www.inkscape.org/) -->

<svg
   width="91.384003mm"
   height="18.242001mm"
   viewBox="0 0 91.384003 18.242001"
   version="1.1"
   id="svg5"
   inkscape:version="1.2.2 (732a01da63, 2022-12-09, custom)"
   sodipodi:docname="banner.svg"
   xmlns:inkscape="http://www.inkscape.org/namespaces/inkscape"
   xmlns:sodipodi="http://sodipodi.sourceforge.net/DTD/sodipodi-0.dtd"
   xmlns="http://www.w3.org/2000/svg"
   xmlns:svg="http://www.w3.org/2000/svg">
  <sodipodi:namedview
     id="namedview7"
     pagecolor="#ffffff"
     bordercolor="#666666"
     borderopacity="1.0"
     inkscape:showpageshadow="2"
     inkscape:pageopacity="0.0"
     inkscape:pagecheckerboard="0"
     inkscape:deskcolor="#d1d1d1"
     inkscape:document-units="mm"
     showgrid="false"
     inkscape:zoom="1.5625561"
     inkscape:cx="144.63481"
     inkscape:cy="78.717173"
     inkscape:window-width="1916"
     inkscape:window-height="1041"
     inkscape:window-x="0"
     inkscape:window-y="18"
     inkscape:window-maximized="1"
     inkscape:current-layer="layer1" />
  <defs
     id="defs2">
    <rect
       x="116.88471"
       y="82.532814"
       width="480.68604"
       height="133.28709"
       id="rect236" />
    <rect
       x="116.88471"
       y="82.532814"
       width="480.68604"
       height="133.28709"
       id="rect1682" />
  </defs>
  <g
     inkscape:label="Layer 1"
     inkscape:groupmode="layer"
     id="layer1">
    <path
       d="m 7.0902515,8.1590985 q 0.4702546,0 0.7131341,-0.2067047 0.2428796,-0.2067057 0.2428796,-0.6097818 0,-0.3979084 -0.2428796,-0.6046141 Q 7.5605061,6.5261243 7.0902515,6.5261243 H 5.9895426 v 1.6329742 z m 0.067178,3.3744715 q 0.599448,0 0.8991706,-0.253214 0.3048926,-0.253214 0.3048926,-0.764812 0,-0.501261 -0.2997253,-0.7493082 Q 7.7620445,9.5130216 7.1574292,9.5130216 H 5.9895426 V 11.53357 Z m 1.850017,-2.7750236 q 0.640789,0.1860338 0.9921874,0.6872975 0.3514011,0.5012611 0.3514011,1.2298971 0,1.116211 -0.7544779,1.663983 -0.7544752,0.54777 -2.2944322,0.54777 H 4.0000003 V 5.1722019 h 2.9868971 q 1.6071373,0 2.3254414,0.4857583 0.7234682,0.4857586 0.7234682,1.5554608 0,0.5632731 -0.2635483,0.9611821 -0.2635515,0.3927395 -0.7648122,0.5839433 z"
       id="path1726"
       style="font-weight:bold;font-size:40px;line-height:1.25;-inkscape-font-specification:'sans-serif, Bold';letter-spacing:-0.5px;word-spacing:0px;white-space:pre;fill:#639694;stroke-width:0.264583" />
    <path
       d="m 14.445874,10.283001 q -0.578776,0 -0.873331,0.196372 -0.289388,0.196368 -0.289388,0.578776 0,0.351398 0.232542,0.552936 0.237713,0.196372 0.656291,0.196372 0.521933,0 0.878502,-0.372071 0.356565,-0.377237 0.356565,-0.940511 v -0.211874 z m 2.8267,-0.6976317 v 3.3021247 h -1.865519 v -0.85783 q -0.37207,0.5271 -0.837157,0.76998 -0.465087,0.23771 -1.131713,0.23771 -0.899171,0 -1.462445,-0.521931 -0.558104,-0.5271 -0.558104,-1.364257 0,-1.018027 0.697632,-1.493449 0.7028,-0.4754245 2.201416,-0.4754245 h 1.090371 V 9.0375998 q 0,-0.4392507 -0.346231,-0.6407891 -0.346233,-0.2067057 -1.080037,-0.2067057 -0.59428,0 -1.105876,0.1188561 -0.511596,0.1188561 -0.950846,0.3565684 V 7.2547622 q 0.594278,-0.144694 1.193726,-0.2170412 0.599445,-0.077515 1.198893,-0.077515 1.565796,0 2.258258,0.6201172 0.697632,0.6149488 0.697632,2.0050461 z"
       id="path1728"
       style="font-weight:bold;font-size:40px;line-height:1.25;-inkscape-font-specification:'sans-serif, Bold';letter-spacing:-0.5px;word-spacing:0px;white-space:pre;fill:#639694;stroke-width:0.264583" />
    <path
       d="M 23.537826,7.2806003 V 8.7895529 Q 23.160588,8.5311688 22.778183,8.4071454 22.400945,8.2831219 21.992701,8.2831219 q -0.775147,0 -1.20923,0.4547526 -0.428914,0.4495853 -0.428914,1.2609063 0,0.8113212 0.428914,1.2660732 0.434083,0.449583 1.20923,0.449583 0.434081,0 0.821656,-0.129191 0.392739,-0.129191 0.723469,-0.382405 v 1.514121 q -0.434081,0.160197 -0.883666,0.237709 -0.444418,0.08268 -0.894004,0.08268 -1.565796,0 -2.449462,-0.800984 -0.883669,-0.806151 -0.883669,-2.2375892 0,-1.4314382 0.883669,-2.2324221 0.883666,-0.8061524 2.449462,-0.8061524 0.454753,0 0.894004,0.082682 0.444415,0.077515 0.883666,0.2377117 z"
       id="path1730"
       style="font-weight:bold;font-size:40px;line-height:1.25;-inkscape-font-specification:'sans-serif, Bold';letter-spacing:-0.5px;word-spacing:0px;white-space:pre;fill:#639694;stroke-width:0.264583" />
    <path
       d="m 25.002337,4.8466403 h 1.850014 v 4.3769933 l 2.12907,-2.1239008 h 2.14974 l -2.8267,2.6561684 3.048907,3.1315928 h -2.242756 l -2.258261,-2.413291 v 2.413291 h -1.850014 z"
       id="path1732"
       style="font-weight:bold;font-size:40px;line-height:1.25;-inkscape-font-specification:'sans-serif, Bold';letter-spacing:-0.5px;word-spacing:0px;white-space:pre;fill:#639694;stroke-width:0.264583" />
    <path
       d="m 33.758391,12.050336 v 3.038573 H 31.908374 V 7.0997328 h 1.850017 v 0.8474934 q 0.382405,-0.5064289 0.847492,-0.7441406 0.465088,-0.2428793 1.069703,-0.2428793 1.069702,0 1.757,0.8526613 0.687295,0.8474946 0.687295,2.1859132 0,1.3384182 -0.687295,2.1910802 -0.687298,0.847493 -1.757,0.847493 -0.604615,0 -1.069703,-0.23771 -0.465087,-0.24288 -0.847492,-0.749308 z m 1.229897,-3.7465422 q -0.594278,0 -0.914672,0.4392507 -0.315225,0.4340807 -0.315225,1.2557363 0,0.8216552 0.315225,1.2609032 0.320394,0.434084 0.914672,0.434084 0.594281,0 0.904338,-0.434084 0.315227,-0.43408 0.315227,-1.2609032 0,-0.8268229 -0.315227,-1.2609063 -0.310057,-0.4340807 -0.904338,-0.4340807 z"
       id="path1734"
       style="font-weight:bold;font-size:40px;line-height:1.25;-inkscape-font-specification:'sans-serif, Bold';letter-spacing:-0.5px;word-spacing:0px;white-space:pre;fill:#639694;stroke-width:0.264583" />
    <path
       d="m 43.651326,8.6758641 q -0.24288,-0.1136888 -0.485759,-0.1653646 -0.23771,-0.056843 -0.480589,-0.056843 -0.713134,0 -1.100709,0.4599199 -0.382405,0.4547526 -0.382405,1.3074116 v 2.666506 H 39.351847 V 7.0997328 h 1.850017 v 0.9508463 q 0.356568,-0.5684406 0.816488,-0.8268229 0.465087,-0.2635499 1.111044,-0.2635499 0.09302,0 0.201535,0.010335 0.108522,0.00517 0.315228,0.031006 z"
       id="path1736"
       style="font-weight:bold;font-size:40px;line-height:1.25;-inkscape-font-specification:'sans-serif, Bold';letter-spacing:-0.5px;word-spacing:0px;white-space:pre;fill:#639694;stroke-width:0.264583" />
    <path
       d="m 47.193229,8.2831219 q -0.61495,0 -0.940512,0.444418 -0.320392,0.4392506 -0.320392,1.2712409 0,0.8319902 0.320392,1.2764082 0.325562,0.439248 0.940512,0.439248 0.604615,0 0.925007,-0.439248 0.320395,-0.444418 0.320395,-1.2764082 0,-0.8319903 -0.320395,-1.2712409 -0.320392,-0.444418 -0.925007,-0.444418 z m 0,-1.3229156 q 1.493448,0 2.330606,0.8061524 0.842327,0.8061512 0.842327,2.2324221 0,1.4262682 -0.842327,2.2324222 -0.837158,0.806151 -2.330606,0.806151 -1.498616,0 -2.346111,-0.806151 -0.842325,-0.806154 -0.842325,-2.2324222 0,-1.4262709 0.842325,-2.2324221 0.847495,-0.8061524 2.346111,-0.8061524 z"
       id="path1738"
       style="font-weight:bold;font-size:40px;line-height:1.25;-inkscape-font-specification:'sans-serif, Bold';letter-spacing:-0.5px;word-spacing:0px;white-space:pre;fill:#639694;stroke-width:0.264583" />
    <path
       d="m 53.427474,12.050336 v 3.038573 H 51.577457 V 7.0997328 h 1.850017 v 0.8474934 q 0.382405,-0.5064289 0.847494,-0.7441406 0.465088,-0.2428793 1.0697,-0.2428793 1.069703,0 1.757,0.8526613 0.687298,0.8474946 0.687298,2.1859132 0,1.3384182 -0.687298,2.1910802 -0.687297,0.847493 -1.757,0.847493 -0.604612,0 -1.0697,-0.23771 -0.465089,-0.24288 -0.847494,-0.749308 z m 1.229899,-3.7465422 q -0.59428,0 -0.914672,0.4392507 -0.315227,0.4340807 -0.315227,1.2557363 0,0.8216552 0.315227,1.2609032 0.320392,0.434084 0.914672,0.434084 0.594278,0 0.904338,-0.434084 0.315225,-0.43408 0.315225,-1.2609032 0,-0.8268229 -0.315225,-1.2609063 -0.31006,-0.4340807 -0.904338,-0.4340807 z"
       id="path1740"
       style="font-weight:bold;font-size:40px;line-height:1.25;-inkscape-font-specification:'sans-serif, Bold';letter-spacing:-0.5px;word-spacing:0px;white-space:pre;fill:#639694;stroke-width:0.264583" />
    <path
       d="m 58.183772,5.1722019 h 7.110677 V 6.6759861 H 62.736465 V 12.887494 H 60.746923 V 6.6759861 h -2.563151 z"
       id="path1742"
       style="font-weight:bold;font-size:40px;line-height:1.25;-inkscape-font-specification:'sans-serif, Bold';letter-spacing:-0.5px;word-spacing:0px;white-space:pre;fill:#639694;stroke-width:0.264583" />
    <path
       d="m 67.456592,8.2831219 q -0.61495,0 -0.940512,0.444418 -0.320394,0.4392506 -0.320394,1.2712409 0,0.8319902 0.320394,1.2764082 0.325562,0.439248 0.940512,0.439248 0.604613,0 0.925007,-0.439248 0.320395,-0.444418 0.320395,-1.2764082 0,-0.8319903 -0.320395,-1.2712409 -0.320394,-0.444418 -0.925007,-0.444418 z m 0,-1.3229156 q 1.493448,0 2.330606,0.8061524 0.842327,0.8061512 0.842327,2.2324221 0,1.4262682 -0.842327,2.2324222 -0.837158,0.806151 -2.330606,0.806151 -1.498616,0 -2.346111,-0.806151 -0.842325,-0.806154 -0.842325,-2.2324222 0,-1.4262709 0.842325,-2.2324221 0.847495,-0.8061524 2.346111,-0.8061524 z"
       id="path1744"
       style="font-weight:bold;font-size:40px;line-height:1.25;-inkscape-font-specification:'sans-serif, Bold';letter-spacing:-0.5px;word-spacing:0px;white-space:pre;fill:#639694;stroke-width:0.264583" />
    <path
       d="m 74.595175,8.2831219 q -0.61495,0 -0.940512,0.444418 -0.320395,0.4392506 -0.320395,1.2712409 0,0.8319902 0.320395,1.2764082 0.325562,0.439248 0.940512,0.439248 0.604612,0 0.925007,-0.439248 0.320394,-0.444418 0.320394,-1.2764082 0,-0.8319903 -0.320394,-1.2712409 -0.320395,-0.444418 -0.925007,-0.444418 z m 0,-1.3229156 q 1.493448,0 2.330606,0.8061524 0.842324,0.8061512 0.842324,2.2324221 0,1.4262682 -0.842324,2.2324222 -0.837158,0.806151 -2.330606,0.806151 -1.498619,0 -2.346111,-0.806151 -0.842325,-0.806154 -0.842325,-2.2324222 0,-1.4262709 0.842325,-2.2324221 0.847492,-0.8061524 2.346111,-0.8061524 z"
       id="path1746"
       style="font-weight:bold;font-size:40px;line-height:1.25;-inkscape-font-specification:'sans-serif, Bold';letter-spacing:-0.5px;word-spacing:0px;white-space:pre;fill:#639694;stroke-width:0.264583" />
    <path
       d="m 78.979402,4.8466403 h 1.850017 v 8.0408537 h -1.850017 z"
       id="path1748"
       style="font-weight:bold;font-size:40px;line-height:1.25;-inkscape-font-specification:'sans-serif, Bold';letter-spacing:-0.5px;word-spacing:0px;white-space:pre;fill:#639694;stroke-width:0.264583" />
    <path
       d="M 86.996484,7.2806003 V 8.6861987 Q 86.402206,8.4381519 85.849266,8.3141284 85.296329,8.190105 84.805403,8.190105 q -0.5271,0 -0.785482,0.1343581 -0.253214,0.1291934 -0.253214,0.4030768 0,0.2222103 0.191204,0.3410638 0.196368,0.1188561 0.697629,0.1757018 l 0.325562,0.046508 q 1.421104,0.1808665 1.91203,0.594278 0.490924,0.4134115 0.490924,1.2970795 0,0.925008 -0.682128,1.390094 -0.68213,0.465088 -2.03605,0.465088 -0.573609,0 -1.188559,-0.09302 -0.609783,-0.08785 -1.255736,-0.268715 v -1.4056 q 0.552936,0.268716 1.131712,0.403074 0.583944,0.134361 1.183392,0.134361 0.542602,0 0.816485,-0.149862 0.273886,-0.149863 0.273886,-0.444419 0,-0.248047 -0.191203,-0.366903 -0.186034,-0.124024 -0.749308,-0.191201 l -0.325562,-0.04134 Q 83.125918,10.458701 82.629824,10.040122 82.13373,9.6215431 82.13373,8.768881 q 0,-0.9198401 0.630455,-1.3642572 0.630452,-0.4444175 1.932696,-0.4444175 0.511599,0 1.07487,0.077515 0.563274,0.077515 1.224733,0.242879 z"
       id="path1750"
       style="font-weight:bold;font-size:40px;line-height:1.25;-inkscape-font-specification:'sans-serif, Bold';letter-spacing:-0.5px;word-spacing:0px;white-space:pre;fill:#639694;stroke-width:0.264583" />
  </g>
</svg>
