<svg xmlns="http://www.w3.org/2000/svg" xmlns:svg="http://www.w3.org/2000/svg" id="svg5" width="188.753" height="68.912" version="1.1" viewBox="0 0 49.941 18.233"><defs id="defs2"><rect id="rect236" width="480.686" height="133.287" x="116.885" y="82.533"/><rect id="rect1682" width="480.686" height="133.287" x="116.885" y="82.533"/></defs><g id="layer1"><path id="path424" d="m 7.481732,8.4239625 q 0.991389,0 1.417441,-0.3686987 0.434244,-0.3686973 0.434244,-1.212608 0,-0.8357162 -0.434244,-1.1962212 Q 8.473121,5.2859295 7.481732,5.2859295 H 6.154419 v 3.138033 z M 6.154419,10.60338 v 4.629212 H 3 V 3 h 4.817657 q 2.417023,0 3.539505,0.8111363 1.130674,0.8111362 1.130674,2.5645017 0,1.2126079 -0.589918,1.990972 -0.581722,0.7783628 -1.761558,1.1470618 0.647271,0.147478 1.155256,0.6718502 0.516177,0.516178 1.040547,1.573113 l 1.712399,3.473957 H 10.685311 L 9.19413,12.192878 Q 8.743501,11.275229 8.276482,10.939305 7.817657,10.60338 7.047488,10.60338 Z" style="font-weight:700;font-size:10.5833px;line-height:1.25;-inkscape-font-specification:'sans-serif, Bold';letter-spacing:0;word-spacing:0;fill:#639694;fill-opacity:1;stroke-width:.419497"/><path id="path426" d="m 14.042434,3 h 3.154419 v 9.848344 h 5.538669 v 2.384248 h -8.693088 z" style="font-weight:700;font-size:10.5833px;line-height:1.25;-inkscape-font-specification:'sans-serif, Bold';letter-spacing:0;word-spacing:0;fill:#639694;fill-opacity:1;stroke-width:.419497"/><g id="g337" transform="translate(0.164847,-0.08442895)"><path id="path428" d="m 20.824017,4.218147 v 1.6433053 h 1.906855 v 1.3229125 h -1.906855 v 2.454622 q 0,0.4030752 0.160197,0.5477692 0.160196,0.139526 0.635618,0.139526 h 0.950843 v 1.322912 h -1.586461 q -1.095537,0 -1.555456,-0.454751 -0.454751,-0.459919 -0.454751,-1.5554562 V 7.1843648 H 18.054169 V 5.8614523 h 0.919838 V 4.218147 Z" style="font-weight:700;font-size:10.5833px;line-height:1.25;-inkscape-font-specification:'sans-serif, Bold';letter-spacing:0;word-spacing:0;fill:#b8b8b8;fill-opacity:1;stroke-width:.264583"/><path id="path430" d="m 26.616927,7.0448388 q -0.614947,0 -0.940508,0.4444159 -0.320393,0.4392483 -0.320393,1.2712361 0,0.831988 0.320393,1.2764032 0.325561,0.439249 0.940508,0.439249 0.604612,0 0.925005,-0.439249 0.320393,-0.4444152 0.320393,-1.2764032 0,-0.8319878 -0.320393,-1.2712361 -0.320393,-0.4444159 -0.925005,-0.4444159 z m 0,-1.3229124 q 1.493444,0 2.3306,0.8061498 0.842323,0.8061497 0.842323,2.2324146 0,1.4262652 -0.842323,2.2324142 -0.837156,0.80615 -2.3306,0.80615 -1.498612,0 -2.346102,-0.80615 -0.842324,-0.806149 -0.842324,-2.2324142 0,-1.4262649 0.842324,-2.2324146 0.84749,-0.8061498 2.346102,-0.8061498 z" style="font-weight:700;font-size:10.5833px;line-height:1.25;-inkscape-font-specification:'sans-serif, Bold';letter-spacing:0;word-spacing:0;fill:#b8b8b8;fill-opacity:1;stroke-width:.264583"/><path id="path432" d="m 33.887776,7.0448388 q -0.614947,0 -0.940508,0.4444159 -0.320393,0.4392483 -0.320393,1.2712361 0,0.831988 0.320393,1.2764032 0.325561,0.439249 0.940508,0.439249 0.604613,0 0.925006,-0.439249 0.320392,-0.4444152 0.320392,-1.2764032 0,-0.8319878 -0.320392,-1.2712361 -0.320393,-0.4444159 -0.925006,-0.4444159 z m 0,-1.3229124 q 1.493445,0 2.3306,0.8061498 0.842323,0.8061497 0.842323,2.2324146 0,1.4262652 -0.842323,2.2324142 -0.837155,0.80615 -2.3306,0.80615 -1.498611,0 -2.346102,-0.80615 -0.842323,-0.806149 -0.842323,-2.2324142 0,-1.4262649 0.842323,-2.2324146 0.847491,-0.8061498 2.346102,-0.8061498 z" style="font-weight:700;font-size:10.5833px;line-height:1.25;-inkscape-font-specification:'sans-serif, Bold';letter-spacing:0;word-spacing:0;fill:#b8b8b8;fill-opacity:1;stroke-width:.264583"/><path id="path434" d="m 38.404282,4.2181469 h 1.850011 v 7.4310471 h -1.850011 z" style="font-weight:700;font-size:10.5833px;line-height:1.25;-inkscape-font-specification:'sans-serif, Bold';letter-spacing:0;word-spacing:0;fill:#b8b8b8;fill-opacity:1;stroke-width:.264583"/><path id="path436" d="m 46.55363,6.0423193 v 1.4055944 q -0.594277,-0.2480461 -1.147213,-0.3720691 -0.552936,-0.124023 -1.043861,-0.124023 -0.527098,0 -0.785479,0.1343583 -0.253214,0.1291906 -0.253214,0.4030748 0,0.222208 0.191202,0.3410634 0.19637,0.1188554 0.69763,0.1756993 l 0.325561,0.046509 q 1.421097,0.1808669 1.912021,0.5942774 0.490925,0.413409 0.490925,1.297073 0,0.9250052 -0.682127,1.3900922 -0.682127,0.465086 -2.036045,0.465086 -0.573606,0 -1.188554,-0.09302 -0.60978,-0.08785 -1.255733,-0.268717 v -1.405594 q 0.552936,0.268716 1.13171,0.403075 0.583942,0.134358 1.183387,0.134358 0.5426,0 0.816485,-0.149861 0.273884,-0.149861 0.273884,-0.4444162 0,-0.248046 -0.191202,-0.366902 -0.186035,-0.124023 -0.749306,-0.191202 l -0.325561,-0.04134 q -1.235062,-0.155027 -1.731155,-0.573604 -0.496092,-0.4185776 -0.496092,-1.271236 0,-0.9198376 0.630451,-1.3642535 0.63045,-0.4444159 1.932692,-0.4444159 0.511595,0 1.074866,0.077514 0.563272,0.077514 1.224728,0.2428789 z" style="font-weight:700;font-size:10.5833px;line-height:1.25;-inkscape-font-specification:'sans-serif, Bold';letter-spacing:0;word-spacing:0;fill:#b8b8b8;fill-opacity:1;stroke-width:.264583"/></g></g></svg>