<svg xmlns="http://www.w3.org/2000/svg" xmlns:svg="http://www.w3.org/2000/svg" id="svg1890" width="210mm" height="297mm" version="1.1" viewBox="0 0 210 297"><defs id="defs1887"><rect id="rect236" width="480.686" height="133.287" x="116.885" y="82.533"/></defs><g id="layer1"><path id="path2076" d="m 15.122009,14.611706 q 0.470254,0 0.713134,-0.206704 0.242879,-0.206706 0.242879,-0.609782 0,-0.397908 -0.242879,-0.604614 -0.24288,-0.211874 -0.713134,-0.211874 H 14.0213 v 1.632974 z m 0.06718,3.374472 q 0.599448,0 0.899171,-0.253214 0.304892,-0.253214 0.304892,-0.764812 0,-0.501261 -0.299725,-0.749308 Q 15.793801,15.96563 15.189186,15.96563 H 14.0213 v 2.020548 z m 1.850017,-2.775024 q 0.640789,0.186034 0.992188,0.687298 0.351401,0.501261 0.351401,1.229897 0,1.116211 -0.754478,1.663983 -0.754475,0.54777 -2.294432,0.54777 H 12.031757 V 11.62481 h 2.986897 q 1.607138,0 2.325442,0.485758 0.723468,0.485759 0.723468,1.555461 0,0.563273 -0.263548,0.961182 -0.263552,0.39274 -0.764813,0.583943 z" style="font-weight:700;font-size:40px;-inkscape-font-specification:'sans-serif, Bold';letter-spacing:-.5px;word-spacing:0;white-space:pre;fill:#639694;stroke-width:.264583"/><path id="path2078" d="m 19.966156,11.62481 h 3.302125 q 1.472779,0 2.258261,0.656291 0.790649,0.651123 0.790649,1.860351 0,1.214395 -0.790649,1.870686 -0.785482,0.651124 -2.258261,0.651124 h -1.312582 v 2.67684 h -1.989543 z m 1.989543,1.441772 v 2.154907 h 1.100709 q 0.578776,0 0.894003,-0.279053 0.315224,-0.284218 0.315224,-0.800984 0,-0.516764 -0.315224,-0.795817 -0.315227,-0.279053 -0.894003,-0.279053 z" style="font-weight:700;font-size:40px;-inkscape-font-specification:'sans-serif, Bold';letter-spacing:-.5px;word-spacing:0;white-space:pre;fill:#639694;stroke-width:.264583"/><path id="path2080" d="m 26.670658,12.376702 0.812207,-2.017032 v 1.26514 h 6.29847 v 1.503784 h -2.557984 v 6.211508 h -1.989542 v -6.211508 h -1.750944 v 1.439903 z" style="font-weight:700;font-size:40px;-inkscape-font-specification:'sans-serif, Bold';letter-spacing:-.5px;word-spacing:0;white-space:pre;fill:#639694;stroke-width:.264583"/></g></svg>